<!DOCTYPE svg PUBLIC "-//W3C//DTD SVG 1.1//EN" "http://www.w3.org/Graphics/SVG/1.1/DTD/svg11.dtd">
<!-- Uploaded to: SVG Repo, www.svgrepo.com, Transformed by: SVG Repo Mixer Tools -->
<svg fill="#ffffff" height="800px" width="800px" version="1.1" id="Layer_1" xmlns="http://www.w3.org/2000/svg" xmlns:xlink="http://www.w3.org/1999/xlink" viewBox="0 0 501.333 501.333" xml:space="preserve" stroke="#ffffff">
<g id="SVGRepo_bgCarrier" stroke-width="0"/>
<g id="SVGRepo_tracerCarrier" stroke-linecap="round" stroke-linejoin="round"/>
<g id="SVGRepo_iconCarrier"> <g> <g> <path d="M261.867,248.533V64c0-35.2-28.8-64-64-64c-35.2,0-64,28.8-64,64v184.533C91.2,272,63.467,316.8,63.467,366.933 c0,73.6,59.733,134.4,134.4,134.4c73.6,0,134.4-60.8,134.4-134.4C332.267,316.8,305.6,272,261.867,248.533z M197.867,458.667 c-51.2,0-92.8-41.6-92.8-92.8c0-37.333,22.4-71.467,57.6-85.333c7.467-3.2,12.8-10.667,12.8-19.2V64c0-12.8,10.667-22.4,22.4-22.4 s21.333,9.6,22.4,22.4v197.333c0,8.533,5.333,16,12.8,19.2c35.2,13.867,57.6,48,57.6,85.333 C290.667,417.067,249.067,458.667,197.867,458.667z"/> </g> </g> <g> <g> <path d="M416.533,44.8h-16V29.867c0-11.733-9.6-21.333-21.333-21.333s-21.333,9.6-21.333,21.333V44.8h-14.933 c-11.733,0-21.333,9.6-21.333,21.333c0,11.733,9.6,21.333,21.333,21.333h14.933V102.4c0,11.733,9.6,21.333,21.333,21.333 s21.333-8.533,21.333-20.267v-16h16c11.733,0,21.333-9.6,21.333-21.333S428.267,44.8,416.533,44.8z"/> </g> </g> <g> <g> <path d="M416.533,195.2h-73.6c-11.733,0-21.333,9.6-21.333,21.333s9.6,21.333,21.333,21.333h73.6 c11.733,0,21.333-9.6,21.333-21.333C437.867,204.8,428.267,195.2,416.533,195.2z"/> </g> </g> </g>
</svg>